<?xml version="1.0" standalone="yes"?>
<svg xmlns="http://www.w3.org/2000/svg" width="427" height="118">
<path style="fill:#fcfcfc; stroke:none;" d="M0 0L0 50L1 50C2.01003 27.8964 22.3147 2.9931 45 1C33.2988 -3.91002 12.742 0 0 0z"/>
<path style="fill:#a0a1a2; stroke:none;" d="M45 0L45 1L49 1L45 0z"/>
<path style="fill:#636363; stroke:none;" d="M49.6667 0.333336L50.3333 0.666664L49.6667 0.333336z"/>
<path style="fill:#014f97; stroke:none;" d="M53 118C52.9982 101.546 34.6553 93.274 35.1289 75C35.3523 66.3777 38.9967 57.5853 44.4676 51.0147C46.7814 48.2358 50.9305 46.0089 52.3966 42.6752C57.0348 32.1286 53 11.5534 53 0C36.7263 3.02302 24.4326 6.55684 13.3287 20C-17.3462 57.1371 7.47749 112.242 53 118z"/>
<path style="fill:#2595fd; stroke:none;" d="M53 0L53 43C59.0457 41.3505 64.5793 39.0034 71 39.794C95.4248 42.8015 102.662 68.604 98 89C102.842 82.5956 104.223 73.7871 105.155 66C109.136 32.7502 86.8634 2.67252 53 0z"/>
<path style="fill:#a0a1a2; stroke:none;" d="M57 0L57 1L60 1L57 0z"/>
<path style="fill:#fcfcfc; stroke:none;" d="M60 0L60 1C88.7388 3.50908 107.124 35.4435 105.961 62C105.536 71.6936 101.604 79.8908 99 89L98 89C99.7794 80.3745 100.879 72.6318 98.2785 64C96.6156 58.4798 93.8269 53.2841 89.8156 49.0934C76.2242 34.8943 52.7616 37.9898 42.1049 54C32.5124 68.4115 34.0024 89.4336 46.0934 101.96C49.8545 105.856 54.6511 109.236 60 110.471C66.554 111.983 73.7045 110.996 80 109L80 110L60 117L60 118L427 118L427 60L426 60C421.66 75.8994 413.577 115.581 394 116L394 110C401.261 109.824 406.449 104.798 404.867 97C402.151 83.6186 394.598 71.1805 391 58C403.156 58.9268 403.569 81.3701 409 90L420 58L427 58L427 0L60 0z"/>
<path style="fill:#a0a1a2; stroke:none;" d="M40.6667 1.33334L41.3333 1.66666L40.6667 1.33334z"/>
<path style="fill:#636363; stroke:none;" d="M42 1L43 2L42 1z"/>
<path style="fill:#a0a1a2; stroke:none;" d="M64 1L65 2L64 1M37 2L38 3L37 2z"/>
<path style="fill:#636363; stroke:none;" d="M38 2L39 3L38 2z"/>
<path style="fill:#a0a1a2; stroke:none;" d="M67 2L68 3L67 2z"/>
<path style="fill:#636363; stroke:none;" d="M35 3L36 4L35 3z"/>
<path style="fill:#a0a1a2; stroke:none;" d="M70 3L71 4L70 3M32 4L33 5L32 4M30 5L31 6L30 5M28 6L29 7L28 6z"/>
<path style="fill:#636363; stroke:none;" d="M27 7L28 8L27 7z"/>
<path style="fill:#a0a1a2; stroke:none;" d="M78 7L79 8L78 7M25 8L26 9L25 8z"/>
<path style="fill:#636363; stroke:none;" d="M24 9L25 10L24 9z"/>
<path style="fill:#a0a1a2; stroke:none;" d="M81 9L82 10L81 9M21 11L22 12L21 11M20 12L21 13L20 12M85 12L86 13L85 12z"/>
<path style="fill:#636363; stroke:none;" d="M19 13L20 14L19 13z"/>
<path style="fill:#a0a1a2; stroke:none;" d="M86 13L87 14L86 13z"/>
<path style="fill:#636363; stroke:none;" d="M18 14L19 15L18 14z"/>
<path style="fill:#a0a1a2; stroke:none;" d="M87 14L88 15L87 14z"/>
<path style="fill:#636363; stroke:none;" d="M17 15L18 16L17 15z"/>
<path style="fill:#a0a1a2; stroke:none;" d="M88 15L89 16L88 15z"/>
<path style="fill:#636363; stroke:none;" d="M16 16L17 17L16 16z"/>
<path style="fill:#a0a1a2; stroke:none;" d="M89 16L90 17L89 16M15 17L16 18L15 17M90 17L91 18L90 17M14 18L15 19L14 18M209 18L212 22L212 21L209 18z"/>
<path style="fill:#636363; stroke:none;" d="M210 18L210 21L212 21L212 18L210 18z"/>
<path style="fill:#a0a1a2; stroke:none;" d="M244 18C244 24.4993 241.104 40.1779 247 44L247 43L244 18z"/>
<path style="fill:#636363; stroke:none;" d="M245 18L245 43L247 43L247 18L245 18z"/>
<path style="fill:#a0a1a2; stroke:none;" d="M13 19L14 20L13 19M11 22L12 23L11 22M94 22L95 23L94 22M125.667 24.3333L126.333 24.6667L125.667 24.3333M145 24L145 25L148 25L145 24M165 24L165 25L168 25L165 24M184.667 24.3333L185.333 24.6667L184.667 24.3333M204 24L204 25L205 28L206 28L204 24M224.667 24.3333L225.333 24.6667L224.667 24.3333M258 24L258 25L261 25L258 24M276 24L276 25L279 25L276 24M297.667 24.3333L298.333 24.6667L297.667 24.3333M9 25L10 26L9 25M96 25L97 26L96 25M122 25L120 28L122 25z"/>
<path style="fill:#636363; stroke:none;" d="M131 41C130.068 46.9822 126.593 48.467 121 47C122.04 51.8544 130.459 50.8882 132.583 46.9167C135.742 41.0112 134 31.4951 134 25L130 27C118.122 18.0609 113.896 50.0799 131 41M153 40C147.109 42.0938 143.186 41.2759 141 35L154 35C153.189 23.6168 139.355 21.5304 139.023 34C138.822 41.538 150.294 49.2505 153 40z"/>
<path style="fill:#a0a1a2; stroke:none;" d="M158 25C158 29.6931 155.632 42.8497 161 44L161 43L158 25z"/>
<path style="fill:#636363; stroke:none;" d="M159 25L159 43L161 43C161 25.6512 170 25.6281 170 43L172 43C172 38.5703 170.604 15.8338 162 28L161 28L159 25z"/>
<path style="fill:#a0a1a2; stroke:none;" d="M163 25L164 26L163 25M169 25L170 26L169 25M181 25L182 26L181 25z"/>
<path style="fill:#636363; stroke:none;" d="M191 41C184.96 41.692 181.923 40.568 179 35L192 35C191.503 25.4396 179.576 20.5313 177.348 32.0039C175.865 39.6394 185.315 49.0457 191 41z"/>
<path style="fill:#a0a1a2; stroke:none;" d="M188 25L189 26L188 25z"/>
<path style="fill:#636363; stroke:none;" d="M197 25L197 43L199 43C199 36.2478 198.256 29.2273 206 27L206 25L199 28L197 25z"/>
<path style="fill:#a0a1a2; stroke:none;" d="M199 25L199 28L200 28L199 25M201 25L202 26L201 25M209 25C209 29.6931 206.632 42.8497 212 44L212 43L209 25z"/>
<path style="fill:#636363; stroke:none;" d="M210 25L210 43L212 43L212 25L210 25z"/>
<path style="fill:#a0a1a2; stroke:none;" d="M221 25L222 26L221 25z"/>
<path style="fill:#636363; stroke:none;" d="M230 41C217.406 42.9297 216.582 25.833 230 28C227.2 23.6811 220.811 24.5555 218.318 29.1088C214.05 36.9038 223.592 50.0676 230 41z"/>
<path style="fill:#a0a1a2; stroke:none;" d="M229 25L230 26L229 25z"/>
<path style="fill:#636363; stroke:none;" d="M256.133 26.0285C248.063 30.6086 253.095 48.2831 262.867 42.8171C271.04 38.2453 265.908 20.4813 256.133 26.0285z"/>
<path style="fill:#a0a1a2; stroke:none;" d="M274 25L275 26L274 25z"/>
<path style="fill:#636363; stroke:none;" d="M283 41C282.063 47.0099 278.588 48.1969 273 48L273 50C288.521 49.988 285 37.0402 285 25L283 28C269.575 16.3817 265.618 50.2627 283 41z"/>
<path style="fill:#a0a1a2; stroke:none;" d="M280 25L281 26L280 25M285 25L285 44L286 44L285 25z"/>
<path style="fill:#636363; stroke:none;" d="M294.225 26.0285C286.549 30.6078 291.204 48.1203 300.891 42.8171C309.108 38.319 304.056 20.1631 294.225 26.0285z"/>
<path style="fill:#a0a1a2; stroke:none;" d="M301 25L302 26L301 25M141 26L142 27L141 26M151 26L152 27L151 26z"/>
<path style="fill:#fcfcfc; stroke:none;" d="M199 26L200 27L199 26z"/>
<path style="fill:#a0a1a2; stroke:none;" d="M219 26L220 27L219 26M254 26L255 27L254 26M264 26L265 27L264 26z"/>
<path style="fill:#636363; stroke:none;" d="M8 27L9 28L8 27z"/>
<path style="fill:#a0a1a2; stroke:none;" d="M124 27L125 28L124 27z"/>
<path style="fill:#fcfcfc; stroke:none;" d="M125.224 27.8904C119.815 29.4235 121.371 42.6054 127.787 40.1991C133.037 38.2301 131.472 26.1195 125.224 27.8904z"/>
<path style="fill:#a0a1a2; stroke:none;" d="M128 27L129 28L128 27M140 27L141 28L140 27M144 27L145 28L144 27z"/>
<path style="fill:#fcfcfc; stroke:none;" d="M142 33L151 33C149.595 26.4165 143.123 26.1196 142 33z"/>
<path style="fill:#a0a1a2; stroke:none;" d="M148 27L149 28L148 27M161 27L162 28L161 27M167 27L168 28L167 27M171 27L172 28L171 27M182 27L183 28L182 27z"/>
<path style="fill:#fcfcfc; stroke:none;" d="M180 33L189 33C187.882 25.991 181.425 26.3248 180 33z"/>
<path style="fill:#a0a1a2; stroke:none;" d="M190 27L191 28L190 27M202 27L203 28L202 27M227 27L228 28L227 27M257 27L256 29L257 27z"/>
<path style="fill:#fcfcfc; stroke:none;" d="M258.133 28.1366C253.209 30.4877 254.378 42.5858 260.867 40.338C266.309 38.4532 264.374 25.1564 258.133 28.1366z"/>
<path style="fill:#a0a1a2; stroke:none;" d="M261 27L262 28L261 27M265 27L266 28L265 27M272 27L273 28L272 27z"/>
<path style="fill:#fcfcfc; stroke:none;" d="M276.314 28.0864C272.003 30.5074 273.659 43.0753 279.776 39.9136C285.173 37.1244 282.321 24.7132 276.314 28.0864z"/>
<path style="fill:#a0a1a2; stroke:none;" d="M280 27L281 28L280 27M282 27L283 28L282 27z"/>
<path style="fill:#fcfcfc; stroke:none;" d="M296.213 28.1366C290.706 30.855 293.222 43.8713 299.7 39.9529C304.197 37.2324 302.219 25.1715 296.213 28.1366z"/>
<path style="fill:#a0a1a2; stroke:none;" d="M299 27L300 28L299 27M303 27L304 28L303 27M7 28L8 29L7 28M129 28L130 29L129 28M162 28L163 29L162 28M221 28L222 29L221 28M281 28L282 29L281 28M291 28L292 29L291 28M294 28L295 29L294 28M122 29L123 30L122 29M130 29L131 30L130 29M139 29L140 30L139 29M150 29L151 30L150 29M180 29L181 30L180 29M191 29L192 30L191 29M217.333 29.6667L217.667 30.3333L217.333 29.6667M220 29L221 30L220 29M263 29L264 30L263 29M266 29L267 30L266 29M271 29L272 30L271 29M301 29L302 30L301 29M304 29L305 30L304 29M6 30L7 31L6 30M119 30L120 31L119 30M153 30L154 31L153 30M161 30L162 31L161 30M169 30L170 31L169 30M177 30L178 31L177 30M189 30L189 33L190 33L189 30M252 30L253 31L252 30M282 30L283 31L282 30M290.333 30.6667L290.667 31.3333L290.333 30.6667M293 30L294 31L293 30M141.333 31.6667L141.667 32.3333L141.333 31.6667M199 31L199 43L200 43L199 31M273 31L273 37L274 37L273 31M302 31L302 34L303 34L302 31M5 32L6 33L5 32M138 32L138 37L139 37L138 32M179 32L180 33L179 32M219 32L219 36L220 36L219 32M264 32L264 36L265 36L264 32M305 32L305 36L306 36L305 32z"/>
<path style="fill:#636363; stroke:none;" d="M5 33L6 34L5 33z"/>
<path style="fill:#a0a1a2; stroke:none;" d="M100 33L101 34L100 33M121.333 33.6667L121.667 34.3333L121.333 33.6667M254.333 33.6667L254.667 34.3333L254.333 33.6667M4 35L5 36L4 35M101 35L102 36L101 35M179.333 35.6667L179.667 36.3333L179.333 35.6667M302 35L302 38L303 38L302 35M141.333 36.6667L141.667 37.3333L141.333 36.6667M290.333 36.6667L290.667 37.3333L290.333 36.6667M3.33333 37.6667L3.66667 38.3333L3.33333 37.6667M119.333 37.6667L119.667 38.3333L119.333 37.6667M282 37L283 38L282 37M102 38L103 39L102 38M122 38L123 39L122 38M130 38L131 39L130 38M177 38L178 39L177 38M217 38L218 39L217 38M220 38L221 39L220 38M252 38L253 39L252 38M255 38L256 39L255 38M266 38L267 39L266 38M271 38L272 39L271 38M293 38L294 39L293 38M66 39L66 40L70 40L66 39M139 39L140 40L139 39M142 39L143 40L142 39M281 39L282 40L281 39M301 39L302 40L301 39M304 39L305 40L304 39M60 40L61 41L60 40M74.6667 40.3333L75.3333 40.6667L74.6667 40.3333M120 40L121 41L120 40M128 40L129 41L128 40M143 40L144 41L143 40M178 40L179 41L178 40M190 40L191 43L192 43L192 40L190 40M218 40L219 41L218 40M229 40L230 41L229 40M256 40L257 41L256 40M262 40L263 41L262 40M280 40L281 41L280 40M291 40L292 41L291 40M300 40L301 41L300 40M2 41L3 42L2 41M57 41L58 42L57 41M78 41L79 42L78 41M103 41L104 42L103 41M145 41L145 42L150 42L145 41M183 41L183 42L188 42L183 41M223 41L223 42L228 42L223 41M258 41L258 42L261 42L258 41M296 41L296 42L299 42L296 41M303 41L304 42L303 41M55 42L56 43L55 42M80 42L81 43L80 42M122 42L123 43L122 42M129 42L130 43L129 42M180 42L181 43L180 42M302 42L303 43L302 42M53 43L54 44L53 43M82 43L83 44L82 43M124 43L124 44L128 44L124 43M143 43L144 44L143 43M150.667 43.3333L151.333 43.6667L150.667 43.3333M170.667 43.3333L171.333 43.6667L170.667 43.3333M182 43L183 44L182 43M189 43L190 44L189 43M197.667 43.3333L198.333 43.6667L197.667 43.3333M221 43L222 44L221 43M228 43L229 44L228 43M256 43L257 44L256 43M262 43L263 44L262 43M276 43L276 44L279 44L276 43M294 43L295 44L294 43M300 43L301 44L300 43M1.33333 44.6667L1.66667 45.3333L1.33333 44.6667M51 44L52 45L51 44M133.333 44.6667L133.667 45.3333L133.333 44.6667M282.333 44.6667L282.667 45.3333L282.333 44.6667M50 45L51 46L50 45M85 45L86 46L85 45M104.333 45.6667L104.667 46.3333L104.333 45.6667M130 45L131 46L130 45z"/>
<path style="fill:#636363; stroke:none;" d="M1 46L2 47L1 46M48 46L49 47L48 46M47 47L48 48L47 47z"/>
<path style="fill:#a0a1a2; stroke:none;" d="M122 47L123 48L122 47M132 47L133 48L132 47M273 47L274 48L273 47M280 47L281 48L280 47M46 48L47 49L46 48M125.667 48.3333L126.333 48.6667L125.667 48.3333M277 48L278 49L277 48M283 48L284 49L283 48z"/>
<path style="fill:#636363; stroke:none;" d="M45 49L46 50L45 49z"/>
<path style="fill:#a0a1a2; stroke:none;" d="M130 49L131 50L130 49M282 49L283 50L282 49M0 50L0 54L1 54L0 50z"/>
<path style="fill:#636363; stroke:none;" d="M44 50L45 51L44 50z"/>
<path style="fill:#a0a1a2; stroke:none;" d="M123 50L123 51L129 51L123 50M275 50L275 51L281 51L275 50M105 51L105 54L106 54L105 51M92 52L93 53L92 52M42 53L43 54L42 53M93 53L94 54L93 53z"/>
<path style="fill:#636363; stroke:none;" d="M0.333333 54.6667L0.666667 55.3333L0.333333 54.6667M41 54L42 55L41 54z"/>
<path style="fill:#a0a1a2; stroke:none;" d="M94 55L95 56L94 55M40 56L41 57L40 56M134 57L134 58L141 58L134 57M170 57L170 58L177 58L170 57M215 57L215 58L221 58L215 57M240 57L240 58L245 58L240 57M281 57L281 58L288 58L281 57M319 57L319 58L327 58L319 57M367 57L367 58L373 58L367 57M39 58L40 59L39 58M130 58L131 59L130 58z"/>
<path style="fill:#636363; stroke:none;" d="M148 93C143.515 94.0253 138.572 96.0059 134.001 94.2577C122.491 89.8562 122.368 71.0865 132.043 64.7423C137.234 61.3384 142.914 63.9278 148 66C147.694 56.6839 136.162 55.8572 129.001 59.4568C121.729 63.112 119.201 71.3598 119.054 79C118.908 86.5489 121.879 95.1168 129.001 98.686C135.638 102.012 147.304 102.007 148 93z"/>
<path style="fill:#a0a1a2; stroke:none;" d="M144 58L145 59L144 58M167 58L168 59L167 58z"/>
<path style="fill:#636363; stroke:none;" d="M168 58.5725C147.972 64.3201 154.852 107.811 179 99.6551C198.888 92.9379 192.04 51.6736 168 58.5725z"/>
<path style="fill:#a0a1a2; stroke:none;" d="M179 58L180 59L179 58M200 58L200 100L201 100L201 59L206 59L206 65C208.826 59.9917 204.499 58.1477 200 58M212 58L213 59L212 58z"/>
<path style="fill:#636363; stroke:none;" d="M207 65L206 65L206 59L201 59L201 100L206 100C206 91.0299 204.105 79.5245 207.264 71.0008C208.789 66.8849 213.099 62.1203 217.995 63.6474C229.212 67.1458 225 91.1411 225 100L230 100C230 90.954 227.762 78.3499 231.769 70.0039C233.847 65.674 238.856 61.3926 243.811 64.1829C252.907 69.3047 249 91.2866 249 100L254 100C254 89.6794 257.064 73.4278 252.427 64.0154C247.389 53.788 234.34 57.7087 230 66C224.292 57.0994 212.717 54.2463 207 65z"/>
<path style="fill:#a0a1a2; stroke:none;" d="M223 58L224 59L223 58M247 58L248 59L247 58M273 116L274 94C269.755 97.7096 272 109.594 272 115L267 115L267 59L272 59L274 64L273 58L266.318 61.1481L266 77L266.318 112.852L273 116z"/>
<path style="fill:#636363; stroke:none;" d="M272 64L272 59L267 59L267 115L272 115L272 94C274.542 96.1236 276.812 98.5857 280.004 99.7323C304.865 108.663 307.737 50.8103 280.004 58.4336C276.76 59.3254 274.499 61.9126 272 64z"/>
<path style="fill:#a0a1a2; stroke:none;" d="M315 58L316 59L315 58z"/>
<path style="fill:#636363; stroke:none;" d="M311 66C320.182 62.4641 331.576 61.2196 333 74C328.135 74 322.758 73.3748 318 74.5332C293.626 80.4674 319.448 115.702 332 94L333 94L333 100L339 100C339 89.4612 342.274 71.9636 335.487 63.0548C329.946 55.7816 311.378 54.6198 311 66z"/>
<path style="fill:#a0a1a2; stroke:none;" d="M329 58L330 59L329 58M352 58L352 59L358 59L352 58M364 58L365 59L364 58z"/>
<path style="fill:#636363; stroke:none;" d="M357 64L358 59L352 59L352 100L357 100C359.732 90.7585 354.813 78.6131 359.179 70.0039C363.145 62.1836 372.72 61.1978 376.106 70.0008C379.324 78.366 377 91.1074 377 100L382 100C385.56 87.9557 386.1 51.4331 365.015 58.7029C361.977 59.7503 359.581 62.1788 357 64z"/>
<path style="fill:#a0a1a2; stroke:none;" d="M375 58L376 59L375 58M391 58L391 59L398 60L391 58M420 58L420 59L427 60L420 58M128 59L129 60L128 59M147 59L148 60L147 59M181 59L182 60L181 59M291 59L292 60L291 59M312 59L313 60L312 59M362 59L363 60L362 59z"/>
<path style="fill:#636363; stroke:none;" d="M391 59C395.638 71.024 403.421 85.2036 405.055 98C405.98 105.244 400.635 109.785 394 110L394 115L405.61 112.566L412.947 97L426 59L420 59L409 91C404.974 81.917 402.743 59.3854 391 59z"/>
<path style="fill:#a0a1a2; stroke:none;" d="M38 60L39 61L38 60M163 60L164 61L163 60M250 60L251 61L250 60M310 60L310 66L311 66L310 60M333 60L334 61L333 60M361 60L362 61L361 60M378 60L379 61L378 60M391 60L392 61L391 60M97 61L98 62L97 61M125 61L126 62L125 61M162 61L163 62L162 61M184 61L185 62L184 61M334 61L335 62L334 61M419 61L420 62L419 61z"/>
<path style="fill:#636363; stroke:none;" d="M0.333333 62.6667L0.666667 63.3333L0.333333 62.6667M37 62L38 63L37 62z"/>
<path style="fill:#a0a1a2; stroke:none;" d="M124 62L125 63L124 62M161 62L162 63L161 62M185 62L186 63L185 62M335 62L336 63L335 62M359 62L360 63L359 62M392 62L393 63L392 62M398 62L399 63L398 62M425 62L426 63L425 62M37 63L38 64L37 63M105 63L105 67L106 67L105 63M133.667 63.3333L134.333 63.6667L133.667 63.3333M141.667 63.3333L142.333 63.6667L141.667 63.3333M160 63L161 64L160 63M170 63L171 64L170 63z"/>
<path style="fill:#fcfcfc; stroke:none;" d="M171.015 63.6682C158.081 67.4296 160.407 99.2429 175.96 94.3434C188.81 90.2953 185.975 59.318 171.015 63.6682z"/>
<path style="fill:#a0a1a2; stroke:none;" d="M176 63L177 64L176 63M213.667 63.3333L214.333 63.6667L213.667 63.3333M218.667 63.3333L219.333 63.6667L218.667 63.3333M228 63L229 64L228 63M237.667 63.3333L238.333 63.6667L237.667 63.3333M243 63L244 64L243 63M252 63L253 64L252 63M279 63L280 64L279 63z"/>
<path style="fill:#fcfcfc; stroke:none;" d="M280.015 63.7461C268.035 68.2967 271.072 99.911 285.985 94.2539C298.064 89.6713 294.869 58.1043 280.015 63.7461z"/>
<path style="fill:#a0a1a2; stroke:none;" d="M286 63L287 64L286 63M295 63L296 64L295 63M317.667 63.3333L318.333 63.6667L317.667 63.3333M326 63L327 64L326 63M357 63L358 64L357 63M365 63L366 64L365 63M370.667 63.3333L371.333 63.6667L370.667 63.3333M380 63L381 64L380 63M0 64L0 68L1 68L0 64M98 64L99 65L98 64M131 64L132 65L131 64M168 64L169 65L168 64M178 64L179 65L178 64M211 64L212 65L211 64M230 64L231 65L230 64M235 64L236 65L235 64M245 64L246 65L245 64M314 64L315 65L314 64M328 64L329 65L328 64M399 64L400 65L399 64M418 64L419 65L418 64M424 64L425 65L424 64M130 65L131 66L130 65M179 65L180 66L179 65M187 65L188 66L187 65M210 65L211 66L210 65M234 65L235 66L234 65M289 65L290 66L289 65M381 65L382 66L381 65M393 65L394 66L393 65M36.3333 66.6667L36.6667 67.3333L36.3333 66.6667M180 66L181 67L180 66M209 66L210 67L209 66M233 66L234 67L233 66M253 66L254 67L253 66M297 66L298 67L297 66M337 66L338 67L337 66M417 66L418 67L417 66M99.3333 67.6667L99.6667 68.3333L99.3333 67.6667M128 67L129 68L128 67M158 67L159 68L158 67M165 67L166 68L165 67M188 67L189 68L188 67M208 67L209 68L208 67M223 67L224 68L223 67M247 67L248 68L247 67M375 67L376 68L375 67M400 67L401 68L400 67M423 67L424 68L423 67z"/>
<path style="fill:#fcfcfc; stroke:none;" d="M0 68L0 118L45 118L45 117C17.0801 114.547 9.42375 88.9482 0 68z"/>
<path style="fill:#a0a1a2; stroke:none;" d="M291 68L292 69L291 68M359 68L360 69L359 68M394 68L395 69L394 68M120 69L121 70L120 69M157.333 69.6667L157.667 70.3333L157.333 69.6667M164 69L165 70L164 69M182 69L183 70L182 69M207 69L208 70L207 69M231 69L232 70L231 69M298 69L299 70L298 69M332 69L333 70L332 69M338.333 69.6667L338.667 70.3333L338.333 69.6667M382 69L382 73L383 73L382 69M416 69L417 70L416 69M189.333 70.6667L189.667 71.3333L189.333 70.6667M254 70L254 100L255 100L254 70M292.333 70.6667L292.667 71.3333L292.333 70.6667M358 70L359 71L358 70M376.333 70.6667L376.667 71.3333L376.333 70.6667M395 70L396 71L395 70M401 70L402 71L401 70M422 70L423 71L422 70z"/>
<path style="fill:#636363; stroke:none;" d="M1 71L2 72L1 71M35.3333 71.6667L35.6667 72.3333L35.3333 71.6667z"/>
<path style="fill:#a0a1a2; stroke:none;" d="M104.333 71.6667L104.667 72.3333L104.333 71.6667M126 71L127 72L126 71M163.333 71.6667L163.667 72.3333L163.333 71.6667M224 71L224 100L225 100L224 71M248 71L248 99L249 99L248 71M273 71L274 72L273 71M1.33333 72.6667L1.66667 73.3333L1.33333 72.6667M119 72L119 75L120 75L119 72M183.333 72.6667L183.667 73.3333L183.333 72.6667M415 72L416 73L415 72M35 73L35 78L36 78L35 73M206 73L206 100L207 100L206 73M230 73L230 100L231 100L230 73M299 73L299 77L300 77L299 73M396 73L397 74L396 73M402 73L403 74L402 73M421 73L422 74L421 73M125 74L125 78L126 78L125 74M156 74L156 84L157 84L156 74M293 74L293 84L294 84L293 74M317 74L318 75L317 74M314 75L315 76L314 75M414 75L415 76L414 75M420 75L421 76L420 75M2 76L3 77L2 76M103 76L104 77L103 76M397 76L398 77L397 76M403 76L404 77L403 76M162 77L162 81L163 81L162 77M190 77L190 81L191 81L190 77M272 77L272 82L273 82L272 77M311 77L312 78L311 77M413.333 77.6667L413.667 78.3333L413.333 77.6667z"/>
<path style="fill:#636363; stroke:none;" d="M35.3333 78.6667L35.6667 79.3333L35.3333 78.6667z"/>
<path style="fill:#a0a1a2; stroke:none;" d="M310 78L311 79L310 78M404 78L405 79L404 78M419 78L420 79L419 78M3.33333 79.6667L3.66667 80.3333L3.33333 79.6667M102 79L103 80L102 79M319.667 79.3333L320.333 79.6667L319.667 79.3333z"/>
<path style="fill:#fcfcfc; stroke:none;" d="M333 79C329.689 79 326.294 78.7983 323 79.1744C302.685 81.4933 324.688 107.377 331.891 86.9961C332.817 84.3765 332.942 81.7445 333 79z"/>
<path style="fill:#a0a1a2; stroke:none;" d="M398 79L399 80L398 79M309 80L310 81L309 80M412 80L413 81L412 80M125 81L125 84L126 84L125 81M299 81L299 85L300 85L299 81M315 81L316 82L315 81M399 81L400 82L399 81M405 81L406 82L405 81M418 81L419 82L418 81M4 82L5 83L4 82M99.3333 82.6667L99.6667 83.3333L99.3333 82.6667M101 82L102 83L101 82M308 82L309 83L308 82M36.3333 83.6667L36.6667 84.3333L36.3333 83.6667M314 83L315 84L314 83M411 83L412 84L411 83z"/>
<path style="fill:#636363; stroke:none;" d="M5 84L6 85L5 84z"/>
<path style="fill:#a0a1a2; stroke:none;" d="M100 84L101 85L100 84M119.333 84.6667L119.667 85.3333L119.333 84.6667M183.333 84.6667L183.667 85.3333L183.333 84.6667M400 84L401 85L400 84M406 84L407 85L406 84M417 84L418 85L417 84M5 85L6 86L5 85M332.333 85.6667L332.667 86.3333L332.333 85.6667M98 86L99 87L98 86M163 86L164 87L163 86M189.333 86.6667L189.667 87.3333L189.333 86.6667M273 86L274 87L273 86M410 86L411 87L410 86M416.333 86.6667L416.667 87.3333L416.333 86.6667M6 87L7 88L6 87M37 87L38 88L37 87M126 87L127 88L126 87M157.333 87.6667L157.667 88.3333L157.333 87.6667M292 87L293 88L292 87M401 87L402 88L401 87M407 87L408 88L407 87z"/>
<path style="fill:#636363; stroke:none;" d="M37 88L38 89L37 88z"/>
<path style="fill:#a0a1a2; stroke:none;" d="M120 88L121 89L120 88M182 88L183 89L182 88M298 88L299 89L298 88M331 88L332 89L331 88M7 89L8 90L7 89M97.3333 89.6667L97.6667 90.3333L97.3333 89.6667M127 89L128 90L127 89M274 89L275 90L274 89M291 89L292 90L291 89M402 89L403 90L402 89M409 89L410 90L409 89M415 89L416 90L415 89z"/>
<path style="fill:#636363; stroke:none;" d="M8 90L9 91L8 90z"/>
<path style="fill:#a0a1a2; stroke:none;" d="M38 90L39 91L38 90M158 90L159 91L158 90M181 90L182 91L181 90M188 90L189 91L188 90M330 90L331 91L330 90M408 90L409 91L408 90M121 91L122 92L121 91M180 91L181 92L180 91M290 91L291 92L290 91M297 91L298 92L297 91M314 91L315 92L314 91M9 92L10 93L9 92M39 92L40 93L39 92M147 92L148 93L147 92M187 92L188 93L187 92M276 92L277 93L276 92M289 92L290 93L289 92M308 92L309 93L308 92M315 92L316 93L315 92M403 92L404 93L403 92M414 92L415 93L414 92M131 93L132 94L131 93M145 93L146 94L145 93M178 93L179 94L178 93M277 93L278 94L277 93M288 93L289 94L288 93M296 93L297 94L296 93M316 93L317 94L316 93M327 93L328 94L327 93M40 94L41 95L40 94M123 94L124 95L123 94M133 94L134 95L133 94M142 94L143 95L142 94M160 94L161 95L160 94M169 94L170 95L169 94M176 94L177 95L176 94M279 94L280 95L279 94M286 94L287 95L286 94M325 94L326 95L325 94M11 95L12 96L11 95M124 95L125 96L124 95M185 95L186 96L185 95M331 95L332 96L331 95M404 95L405 96L404 95M413 95L414 96L413 95M41 96L42 97L41 96M125 96L126 97L125 96M184 96L185 97L184 96M310 96L311 97L310 96M42 97L43 98L42 97M126 97L127 98L126 97M163 97L164 98L163 97M183 97L184 98L183 97M275 97L276 98L275 97M311 97L312 98L311 97M13 98L14 99L13 98M147 98L148 99L147 98M164 98L165 99L164 98M312 98L313 99L312 98M328 98L329 99L328 98M405 98L406 99L405 98M412 98L413 99L412 98M14 99L15 100L14 99z"/>
<path style="fill:#636363; stroke:none;" d="M43 99L44 100L43 99z"/>
<path style="fill:#a0a1a2; stroke:none;" d="M130 99L131 100L130 99M145 99L146 100L145 99M166 99L167 100L166 99M180 99L181 100L180 99M202 99L202 100L205 100L202 99M226 99L226 100L229 100L226 99M250 99L250 100L253 100L250 99M278 99L279 100L278 99M290 99L291 100L290 99M314 99L315 100L314 99M326 99L327 100L326 99M334 99L334 100L338 100L334 99M353 99L353 100L356 100L353 99M357 99L358 100L357 99M378 99L378 100L381 100L378 99M382 99L383 100L382 99M15 100L16 101L15 100M44 100L45 101L44 100M133 100L133 101L136 101L133 100M139 100L139 101L142 101L139 100M169 100L169 101L172 101L169 100M175 100L175 101L178 101L175 100M281.667 100.333L282.333 100.667L281.667 100.333M286.667 100.333L287.333 100.667L286.667 100.333M316 100L316 101L319 101L316 100M322.667 100.333L323.333 100.667L322.667 100.333M405 100L406 101L405 100M411 100L412 101L411 100z"/>
<path style="fill:#636363; stroke:none;" d="M16 101L17 102L16 101z"/>
<path style="fill:#a0a1a2; stroke:none;" d="M45 101L46 102L45 101z"/>
<path style="fill:#636363; stroke:none;" d="M17 102L18 103L17 102z"/>
<path style="fill:#a0a1a2; stroke:none;" d="M46 102L47 103L46 102z"/>
<path style="fill:#636363; stroke:none;" d="M18 103L19 104L18 103z"/>
<path style="fill:#a0a1a2; stroke:none;" d="M47 103L48 104L47 103M404 103L405 104L404 103M410 103L411 104L410 103M19 104L20 105L19 104M48 104L49 105L48 104M20 105L21 106L20 105z"/>
<path style="fill:#636363; stroke:none;" d="M49 105L50 106L49 105z"/>
<path style="fill:#a0a1a2; stroke:none;" d="M403 105L404 106L403 105M21 106L22 107L21 106M51 106L52 107L51 106M409 106L410 107L409 106z"/>
<path style="fill:#636363; stroke:none;" d="M52 107L53 108L52 107z"/>
<path style="fill:#a0a1a2; stroke:none;" d="M402 107L403 108L402 107z"/>
<path style="fill:#636363; stroke:none;" d="M24 108L25 109L24 108z"/>
<path style="fill:#2595fd; stroke:none;" d="M53 108L53 118L78 111L78 110C68.3887 111.983 62.2761 111.132 53 108z"/>
<path style="fill:#a0a1a2; stroke:none;" d="M54 108L55 109L54 108M81 108L82 109L81 108M408 108L409 109L408 108M25 109L26 110L25 109M78.3333 109.667L78.6667 110.333L78.3333 109.667z"/>
<path style="fill:#2595fd; stroke:none;" d="M79 109L80 110L79 109z"/>
<path style="fill:#a0a1a2; stroke:none;" d="M400 109L401 110L400 109z"/>
<path style="fill:#636363; stroke:none;" d="M27 110L28 111L27 110z"/>
<path style="fill:#a0a1a2; stroke:none;" d="M59 110L60 111L59 110M75 110L76 111L75 110M407 110L408 111L407 110M64 111L64 112L72 112L64 111M30 112L31 113L30 112M32 113L33 114L32 113M35 114L36 115L35 114M70 114L71 115L70 114M403 114L404 115L403 114M37 115L38 116L37 115z"/>
<path style="fill:#636363; stroke:none;" d="M38 115L39 116L38 115z"/>
<path style="fill:#a0a1a2; stroke:none;" d="M67 115L68 116L67 115M394 115L394 116L401 116L394 115M40.6667 116.333L41.3333 116.667L40.6667 116.333z"/>
<path style="fill:#636363; stroke:none;" d="M42 116L43 117L42 116z"/>
<path style="fill:#a0a1a2; stroke:none;" d="M64 116L65 117L64 116M45 117L45 118L48 118L45 117z"/>
<path style="fill:#636363; stroke:none;" d="M48.6667 117.333L49.3333 117.667L48.6667 117.333z"/>
<path style="fill:#a0a1a2; stroke:none;" d="M57 117L57 118L60 118L57 117z"/>
</svg>
